<svg xmlns="http://www.w3.org/2000/svg" version="1.0" width="15" height="15" preserveAspectRatio="xMidYMid meet" viewBox="170 170 340 300" transform="matrix(1, 0, 0, 1, 0, 0)">

<g transform="translate(0.000000,612.000000) scale(0.100000,-0.100000)" fill="#9586ac" stroke="white">
<path d="M1730 4561 c0 -42 37 -155 78 -239 80 -163 214 -293 387 -377 129 -62 191 -75 410 -85 150 -7 205 -13 260 -30 258 -81 452 -267 538 -518 39 -115 49 -297 22 -418 -55 -251 -216 -452 -447 -558 -118 -55 -176 -67 -378 -76 -209 -9 -296 -28 -414 -87 -100 -50 -151 -87 -227 -165 -112 -112 -204 -286 -224 -421 l-7 -47 640 0 c405 0 669 4 718 11 236 33 496 139 689 281 175 129 364 354 463 553 211 423 209 932 -3 1355 -77 152 -160 267 -289 395 -180 179 -359 291 -586 368 -231 78 -332 86 -1067 87 l-563 0 0 -29z" fill="#f44336"/>
<path d="M2471 3564 c-172 -58 -301 -194 -346 -365 -20 -73 -19 -212 1 -280 42 -140 140 -263 260 -326 357 -188 784 66 784 467 0 238 -158 446 -389 514 -86 25 -220 21 -310 -10z" fill="#f44336"/>
</g>
</svg>