<svg width="406" height="368" viewBox="0 0 406 368" fill="none" xmlns="http://www.w3.org/2000/svg">
<path d="M1730 4561 c0 -42 37 -155 78 -239 80 -163 214 -293 387 -377 129
-62 191 -75 410 -85 150 -7 205 -13 260 -30 258 -81 452 -267 538 -518 39
-115 49 -297 22 -418 -55 -251 -216 -452 -447 -558 -118 -55 -176 -67 -378
-76 -209 -9 -296 -28 -414 -87 -100 -50 -151 -87 -227 -165 -112 -112 -204
-286 -224 -421 l-7 -47 640 0 c405 0 669 4 718 11 236 33 496 139 689 281 175
129 364 354 463 553 211 423 209 932 -3 1355 -77 152 -160 267 -289 395 -180
179 -359 291 -586 368 -231 78 -332 86 -1067 87 l-563 0 0 -29z" stroke="#1F2667" stroke-opacity="0.9" stroke-width="10"/>
<path d="M2471 3564 c-172 -58 -301 -194 -346 -365 -20 -73 -19 -212 1 -280
42 -140 140 -263 260 -326 357 -188 784 66 784 467 0 238 -158 446 -389 514
-86 25 -220 21 -310 -10z" stroke="url(#paint0_linear)" stroke-width="10"/>
<defs>
<linearGradient id="paint0_linear" x1="205.549" y1="20.0169" x2="204.338" y2="342.461" gradientUnits="userSpaceOnUse">
<stop stop-color="#1595B6"/>
<stop offset="1" stop-color="#1595B6" stop-opacity="0"/>
</linearGradient>
</defs>
</svg>
